<svg xmlns="http://www.w3.org/2000/svg" xmlns:xlink="http://www.w3.org/1999/xlink" version="1.1" width="1000" height="1000" viewBox="0 0 1000 1000" xml:space="preserve">
<desc>Created with Fabric.js 3.5.0</desc>
<defs>
</defs>
<rect x="0" y="0" width="100%" height="100%" fill="#ffffff"/>
<g transform="matrix(1 0 0 1 500 527.685)" style="" id="266032">
		
<path xml:space="preserve" font-family="Aclonica" font-size="125" font-style="normal" font-weight="normal" style="stroke: none; stroke-width: 1; stroke-dasharray: none; stroke-linecap: butt; stroke-dashoffset: 0; stroke-linejoin: miter; stroke-miterlimit: 4; is-custom-font: none; font-file-url: none; fill: rgb(0,0,0); fill-rule: nonzero; opacity: 1; white-space: pre;" d="M-183.50 0.94L-183.50 39.27L-207.73 39.27L-207.73-48.62L-183.50-48.62L-183.50-10.23L-151.40-10.23L-151.40-48.62L-127.17-48.62L-127.17 39.27L-151.40 39.27L-151.40 0.94L-183.50 0.94ZM-87.68-48.26L-87.68-48.26Q-87.68-45.94-88.56-43.86Q-89.45-41.79-90.97-40.26Q-92.50-38.74-94.57-37.85Q-96.65-36.97-98.97-36.97L-98.97-36.97Q-101.29-36.97-103.33-37.85Q-105.38-38.74-106.90-40.26Q-108.43-41.79-109.31-43.86Q-110.20-45.94-110.20-48.26L-110.20-48.26Q-110.20-50.58-109.31-52.62Q-108.43-54.67-106.90-56.19Q-105.38-57.72-103.33-58.60Q-101.29-59.49-98.97-59.49L-98.97-59.49Q-96.65-59.49-94.57-58.60Q-92.50-57.72-90.97-56.19Q-89.45-54.67-88.56-52.62Q-87.68-50.58-87.68-48.26ZM-88.59-31.17L-88.59 39.27L-109.28 39.27L-109.28-31.17L-88.59-31.17ZM-0.34-31.23L-0.34 30.78Q-0.34 39.21-2.84 46.65Q-5.34 54.10-10.10 59.68Q-14.86 65.27-21.79 68.53Q-28.72 71.80-37.57 71.80L-37.57 71.80Q-42.45 71.80-47.42 70.70Q-52.40 69.60-56.82 67.31Q-61.25 65.02-64.76 61.51Q-68.27 58.01-70.28 53.24L-70.28 53.24L-61.37 49.89Q-60.21 52.88-58.35 55.38Q-56.49 57.88-54.05 59.68Q-51.61 61.48-48.68 62.49Q-45.75 63.50-42.51 63.50L-42.51 63.50Q-36.41 63.50-32.29 61.00Q-28.17 58.49-25.67 54.47Q-23.16 50.44-22.06 45.34Q-20.97 40.24-20.97 35.00L-20.97 35.00L-20.97 30.84Q-24.63 35.85-29.79 38.26Q-34.94 40.67-41.11 40.67L-41.11 40.67Q-49.16 40.67-55.51 37.80Q-61.86 34.93-66.25 29.96Q-70.65 24.99-72.97 18.27Q-75.29 11.56-75.29 3.87L-75.29 3.87Q-75.29-3.82-72.97-10.54Q-70.65-17.25-66.25-22.23Q-61.86-27.20-55.51-30.07Q-49.16-32.94-41.11-32.94L-41.11-32.94Q-37.02-32.94-33.33-31.72Q-29.63-30.50-26.55-28.27Q-23.47-26.04-21.12-22.90Q-18.77-19.75-17.43-15.91L-17.43-15.91L-8.27-31.23L-0.34-31.23ZM-21.09 3.87L-21.09 3.87Q-21.09 1.12-21.36-1.93Q-21.64-4.98-22.31-7.97Q-22.98-10.96-24.17-13.68Q-25.36-16.40-27.22-18.50Q-29.08-20.61-31.71-21.83Q-34.33-23.05-37.81-23.05L-37.81-23.05Q-41.29-23.05-43.85-21.80Q-46.42-20.55-48.25-18.44Q-50.08-16.34-51.27-13.59Q-52.46-10.84-53.13-7.85Q-53.80-4.86-54.08-1.84Q-54.35 1.18-54.35 3.87L-54.35 3.87Q-54.35 6.55-54.08 9.60Q-53.80 12.66-53.13 15.65Q-52.46 18.64-51.27 21.38Q-50.08 24.13-48.25 26.24Q-46.42 28.34-43.85 29.59Q-41.29 30.84-37.81 30.84L-37.81 30.84Q-34.64 30.84-32.17 29.53Q-29.69 28.22-27.83 26.02Q-25.97 23.83-24.69 21.02Q-23.41 18.21-22.61 15.22Q-21.82 12.23-21.45 9.27Q-21.09 6.31-21.09 3.87ZM88.96-1.14L88.96-1.14Q88.96 6.00 87.22 13.75Q85.48 21.51 82.37 28.95Q79.25 36.40 74.92 42.96Q70.59 49.52 65.40 54.28L65.40 54.28L57.65 50.07Q59.30 47.02 60.76 43.23Q62.23 39.45 63.42 35.21Q64.61 30.97 65.55 26.45Q66.50 21.93 67.14 17.51Q67.78 13.08 68.12 8.90Q68.45 4.72 68.45 1.12L68.45 1.12Q68.45-1.26 68.27-3.98Q68.08-6.69 67.50-9.41Q66.93-12.12 65.95-14.63Q64.97-17.13 63.35-19.02Q61.74-20.91 59.45-22.07Q57.16-23.23 54.05-23.23L54.05-23.23Q50.99-23.23 48.61-21.86Q46.23-20.49 44.40-18.26Q42.57-16.03 41.26-13.16Q39.95-10.29 39.12-7.27Q38.30-4.25 37.93-1.32Q37.57 1.61 37.57 3.93L37.57 3.93L37.57 39.27L16.88 39.27L16.88-57.17L37.51-57.17L37.51-20.85Q41.47-26.65 47.24-29.79Q53.01-32.94 60.03-32.94L60.03-32.94Q67.35-32.94 72.78-30.56Q78.22-28.18 81.82-23.93Q85.42-19.69 87.19-13.86Q88.96-8.03 88.96-1.14ZM124.24-48.26L124.24-48.26Q124.24-45.94 123.35-43.86Q122.47-41.79 120.94-40.26Q119.42-38.74 117.34-37.85Q115.26-36.97 112.95-36.97L112.95-36.97Q110.63-36.97 108.58-37.85Q106.54-38.74 105.01-40.26Q103.49-41.79 102.60-43.86Q101.72-45.94 101.72-48.26L101.72-48.26Q101.72-50.58 102.60-52.62Q103.49-54.67 105.01-56.19Q106.54-57.72 108.58-58.60Q110.63-59.49 112.95-59.49L112.95-59.49Q115.26-59.49 117.34-58.60Q119.42-57.72 120.94-56.19Q122.47-54.67 123.35-52.62Q124.24-50.58 124.24-48.26ZM123.32-31.17L123.32 39.27L102.63 39.27L102.63-31.17L123.32-31.17ZM212.68-1.14L212.68-1.14Q212.68 6.00 210.94 13.75Q209.20 21.51 206.09 28.95Q202.97 36.40 198.64 42.96Q194.31 49.52 189.12 54.28L189.12 54.28L181.37 50.07Q183.01 47.02 184.48 43.23Q185.94 39.45 187.13 35.21Q188.32 30.97 189.27 26.45Q190.22 21.93 190.86 17.51Q191.50 13.08 191.83 8.90Q192.17 4.72 192.17 1.12L192.17 1.12Q192.17-1.26 191.99-3.98Q191.80-6.69 191.22-9.41Q190.64-12.12 189.67-14.63Q188.69-17.13 187.07-19.02Q185.46-20.91 183.17-22.07Q180.88-23.23 177.76-23.23L177.76-23.23Q174.71-23.23 172.33-21.86Q169.95-20.49 168.12-18.26Q166.29-16.03 164.98-13.16Q163.67-10.29 162.84-7.27Q162.02-4.25 161.65-1.32Q161.29 1.61 161.29 3.93L161.29 3.93L161.29 39.27L140.59 39.27L140.59-31.23L148.53-31.23L157.99-14.81Q159.70-18.90 162.26-22.26Q164.83-25.61 168.06-27.99Q171.30-30.37 175.23-31.66Q179.17-32.94 183.75-32.94L183.75-32.94Q191.07-32.94 196.50-30.56Q201.93-28.18 205.54-23.93Q209.14-19.69 210.91-13.86Q212.68-8.03 212.68-1.14Z"/></g>
</svg>